<svg width="24" height="25" viewBox="0 0 24 25" fill="none" xmlns="http://www.w3.org/2000/svg">
<g clip-path="url(#clip0_52_3751)">
<path d="M22.5396 7.28206C22.4208 6.80747 22.1789 6.37263 21.8382 6.02147C21.4976 5.6703 21.0703 5.41525 20.5996 5.28206C18.8796 4.86206 11.9996 4.86206 11.9996 4.86206C11.9996 4.86206 5.1196 4.86206 3.3996 5.32206C2.92884 5.45525 2.50157 5.7103 2.16094 6.06147C1.82031 6.41263 1.57838 6.84747 1.4596 7.32206C1.14481 9.06762 0.990831 10.8384 0.999595 12.6121C0.988374 14.3991 1.14236 16.1834 1.4596 17.9421C1.59055 18.4019 1.8379 18.8202 2.17774 19.1565C2.51758 19.4929 2.93842 19.7359 3.3996 19.8621C5.1196 20.3221 11.9996 20.3221 11.9996 20.3221C11.9996 20.3221 18.8796 20.3221 20.5996 19.8621C21.0703 19.7289 21.4976 19.4738 21.8382 19.1227C22.1789 18.7715 22.4208 18.3367 22.5396 17.8621C22.852 16.1296 23.0059 14.3724 22.9996 12.6121C23.0108 10.825 22.8568 9.04076 22.5396 7.28206ZM22.5396 7.28206V7.28206Z" stroke="white" stroke-width="2" stroke-linecap="round" stroke-linejoin="round"/>
<path d="M9.75 15.8821L15.5 12.6121L9.75 9.34206V15.8821Z" stroke="white" stroke-width="2" stroke-linecap="round" stroke-linejoin="round"/>
</g>
<defs>
<clipPath id="clip0_52_3751">
<rect width="24" height="24" fill="white" transform="translate(0 0.862061)"/>
</clipPath>
</defs>
</svg>
