<svg width="24" height="25" viewBox="0 0 24 25" fill="none" xmlns="http://www.w3.org/2000/svg">
<g clip-path="url(#clip0_52_3740)">
<path d="M23 3.86206C22.0424 4.53754 20.9821 5.05417 19.86 5.39206C19.2577 4.69957 18.4573 4.20875 17.567 3.98599C16.6767 3.76322 15.7395 3.81926 14.8821 4.14651C14.0247 4.47377 13.2884 5.05646 12.773 5.81578C12.2575 6.57509 11.9877 7.4744 12 8.39206V9.39206C10.2426 9.43763 8.50127 9.04787 6.93101 8.25751C5.36074 7.46714 4.01032 6.3007 3 4.86206C3 4.86206 -1 13.8621 8 17.8621C5.94053 19.26 3.48716 19.961 1 19.8621C10 24.8621 21 19.8621 21 8.36206C20.9991 8.08351 20.9723 7.80566 20.92 7.53206C21.9406 6.52555 22.6608 5.25477 23 3.86206ZM23 3.86206V3.86206Z" stroke="white" stroke-width="2" stroke-linecap="round" stroke-linejoin="round"/>
</g>
<defs>
<clipPath id="clip0_52_3740">
<rect width="24" height="24" fill="white" transform="translate(0 0.862061)"/>
</clipPath>
</defs>
</svg>
